G04*
G04 #@! TF.GenerationSoftware,Altium Limited,Altium Designer,20.0.11 (256)*
G04*
G04 Layer_Color=2752767*
%FSLAX25Y25*%
%MOIN*%
G70*
G01*
G75*
%ADD30C,0.00200*%
%ADD31C,0.00267*%
D30*
X5105Y95105D02*
Y96706D01*
X6706D01*
Y95105D01*
X5105D01*
Y165105D02*
Y166706D01*
X6706D01*
Y165105D01*
X5105D01*
Y155105D02*
Y156705D01*
X6706D01*
Y155105D01*
X5105D01*
Y145106D02*
Y146705D01*
X6706D01*
Y145106D01*
X5105D01*
Y135106D02*
Y136706D01*
X6706D01*
Y135106D01*
X5105D01*
Y125106D02*
Y126706D01*
X6706D01*
Y125106D01*
X5105D01*
Y115105D02*
Y116706D01*
X6706D01*
Y115105D01*
X5105D01*
Y105105D02*
Y106705D01*
X6706D01*
Y105105D01*
X5105D01*
Y85106D02*
Y86705D01*
X6706D01*
Y85106D01*
X5105D01*
Y75106D02*
Y76705D01*
X6706D01*
Y75106D01*
X5105D01*
X119279Y165105D02*
Y166706D01*
X120879D01*
Y165105D01*
X119279D01*
Y5105D02*
Y6706D01*
X120879D01*
Y5105D01*
X119279D01*
Y15105D02*
Y16705D01*
X120879D01*
Y15105D01*
X119279D01*
Y25106D02*
Y26706D01*
X120879D01*
Y25106D01*
X119279D01*
Y35105D02*
Y36705D01*
X120879D01*
Y35105D01*
X119279D01*
Y45105D02*
Y46705D01*
X120879D01*
Y45105D01*
X119279D01*
Y55106D02*
Y56705D01*
X120879D01*
Y55106D01*
X119279D01*
Y65105D02*
Y66706D01*
X120879D01*
Y65105D01*
X119279D01*
Y75106D02*
Y76705D01*
X120879D01*
Y75106D01*
X119279D01*
Y85106D02*
Y86705D01*
X120879D01*
Y85106D01*
X119279D01*
Y95105D02*
Y96706D01*
X120879D01*
Y95105D01*
X119279D01*
Y105105D02*
Y106705D01*
X120879D01*
Y105105D01*
X119279D01*
Y115105D02*
Y116706D01*
X120879D01*
Y115105D01*
X119279D01*
Y125106D02*
Y126706D01*
X120879D01*
Y125106D01*
X119279D01*
Y135106D02*
Y136706D01*
X120879D01*
Y135106D01*
X119279D01*
Y145106D02*
Y146705D01*
X120879D01*
Y145106D01*
X119279D01*
Y155105D02*
Y156705D01*
X120879D01*
Y155105D01*
X119279D01*
D31*
X26391Y120974D02*
X25838Y121734D01*
X24943Y121444D01*
Y120503D01*
X25838Y120213D01*
X26391Y120974D01*
X101194D02*
X100641Y121734D01*
X99747Y121444D01*
Y120503D01*
X100641Y120213D01*
X101194Y120974D01*
X76259D02*
X75706Y121734D01*
X74812Y121444D01*
Y120503D01*
X75706Y120213D01*
X76259Y120974D01*
X51325D02*
X50772Y121734D01*
X49878Y121444D01*
Y120503D01*
X50772Y120213D01*
X51325Y120974D01*
X23535Y63000D02*
X22982Y63761D01*
X22088Y63470D01*
Y62530D01*
X22982Y62239D01*
X23535Y63000D01*
X49126D02*
X48573Y63761D01*
X47678Y63470D01*
Y62530D01*
X48573Y62239D01*
X49126Y63000D01*
X74716D02*
X74163Y63761D01*
X73269Y63470D01*
Y62530D01*
X74163Y62239D01*
X74716Y63000D01*
X100307D02*
X99754Y63761D01*
X98860Y63470D01*
Y62530D01*
X99754Y62239D01*
X100307Y63000D01*
X111800Y103800D02*
X111247Y104561D01*
X110353Y104270D01*
Y103330D01*
X111247Y103039D01*
X111800Y103800D01*
X109400Y106800D02*
X108847Y107561D01*
X107953Y107270D01*
Y106330D01*
X108847Y106039D01*
X109400Y106800D01*
X107000Y109800D02*
X106447Y110561D01*
X105553Y110270D01*
Y109330D01*
X106447Y109039D01*
X107000Y109800D01*
X104600Y112800D02*
X104047Y113561D01*
X103153Y113270D01*
Y112330D01*
X104047Y112039D01*
X104600Y112800D01*
M02*
