M48
;Layer_Color=9474304
;FILE_FORMAT=2:5
INCH,TZ
;TYPE=PLATED
T1F00S00C0.01181
T2F00S00C0.03543
%
T01
X22735Y63000
X48326
X73916
X99507
X111000Y103800
X108600Y106800
X106200Y109800
X103800Y112800
X100394Y120974
X75459
X50525
X25591
T02
X5906Y75906
Y85905
Y95906
Y105905
Y115905
Y125906
Y135906
X120079
Y125906
Y115905
Y105905
Y95906
Y85905
Y75906
Y65905
Y55905
Y45906
Y35906
Y25905
Y15905
Y5906
Y145905
Y155905
Y165905
X5906
Y155905
Y145905
M30
