G04*
G04 #@! TF.GenerationSoftware,Altium Limited,Altium Designer,20.0.11 (256)*
G04*
G04 Layer_Physical_Order=2*
G04 Layer_Color=16711680*
%FSLAX25Y25*%
%MOIN*%
G70*
G01*
G75*
%ADD12C,0.01000*%
%ADD24C,0.01200*%
%ADD26C,0.05906*%
%ADD27R,0.05906X0.05906*%
%ADD28C,0.02362*%
D12*
X103719Y22265D02*
X120079Y5906D01*
X103719Y22265D02*
Y112719D01*
X103800Y112800D01*
X106119Y29865D02*
X120079Y15905D01*
X106119Y29865D02*
Y109719D01*
X106200Y109800D01*
X108519Y37465D02*
X120079Y25905D01*
X108519Y37465D02*
Y106719D01*
X108600Y106800D01*
X111000Y44984D02*
X120079Y35906D01*
X111000Y44984D02*
Y103800D01*
D24*
X5906Y85905D02*
X25591Y105591D01*
Y120974D01*
X5906Y85905D02*
X22735Y69076D01*
Y63000D02*
Y69076D01*
X73916Y63000D02*
X99507D01*
X48326D02*
X73916D01*
X22735D02*
X48326D01*
X75459Y120974D02*
X100394D01*
X50525D02*
X75459D01*
X25591D02*
X50525D01*
D26*
X5906Y95906D02*
D03*
Y165905D02*
D03*
Y155905D02*
D03*
Y145905D02*
D03*
Y135906D02*
D03*
Y125906D02*
D03*
Y115905D02*
D03*
Y105905D02*
D03*
Y85905D02*
D03*
X120079Y165905D02*
D03*
Y5906D02*
D03*
Y15905D02*
D03*
Y25905D02*
D03*
Y35906D02*
D03*
Y45906D02*
D03*
Y55905D02*
D03*
Y65905D02*
D03*
Y75906D02*
D03*
Y85905D02*
D03*
Y95906D02*
D03*
Y105905D02*
D03*
Y115905D02*
D03*
Y125906D02*
D03*
Y135906D02*
D03*
Y145905D02*
D03*
Y155905D02*
D03*
D27*
X5906Y75906D02*
D03*
D28*
X25591Y120974D02*
D03*
X100394D02*
D03*
X75459D02*
D03*
X50525D02*
D03*
X22735Y63000D02*
D03*
X48326D02*
D03*
X73916D02*
D03*
X99507D02*
D03*
X111000Y103800D02*
D03*
X108600Y106800D02*
D03*
X106200Y109800D02*
D03*
X103800Y112800D02*
D03*
M02*
