G04*
G04 #@! TF.GenerationSoftware,Altium Limited,Altium Designer,20.0.11 (256)*
G04*
G04 Layer_Color=32896*
%FSLAX25Y25*%
%MOIN*%
G70*
G01*
G75*
%ADD12C,0.01000*%
G36*
X69500Y113700D02*
X68500D01*
X64265Y116524D01*
X62500Y107700D01*
X61000D01*
X59500Y115200D01*
X58000Y107700D01*
X56500D01*
X54500Y117700D01*
X56500D01*
X57250Y110200D01*
X58000Y117700D01*
X61000D01*
X61750Y110200D01*
X62500Y117700D01*
X64500D01*
X69500Y113700D01*
D02*
G37*
G36*
X72000Y118700D02*
X70000D01*
X69250Y126200D01*
X68500Y118700D01*
X65500D01*
X64750Y126200D01*
X64000Y118700D01*
X62000D01*
X57000Y122700D01*
X58000D01*
X62235Y119877D01*
X64000Y128700D01*
X65500D01*
X67000Y121200D01*
X68500Y128700D01*
X70000D01*
X72000Y118700D01*
D02*
G37*
G36*
X47287Y6249D02*
X47340Y6240D01*
X47388Y6225D01*
X47427Y6206D01*
X47456Y6187D01*
X47480Y6172D01*
X47494Y6163D01*
X47499Y6158D01*
X47533Y6120D01*
X47562Y6081D01*
X47581Y6043D01*
X47591Y6004D01*
X47600Y5975D01*
X47605Y5946D01*
Y5927D01*
Y5922D01*
X47600Y5869D01*
X47591Y5821D01*
X47571Y5783D01*
X47552Y5744D01*
X47533Y5715D01*
X47513Y5696D01*
X47504Y5682D01*
X47499Y5677D01*
X47456Y5643D01*
X47412Y5619D01*
X47369Y5605D01*
X47326Y5595D01*
X47287Y5586D01*
X47259Y5581D01*
X47230D01*
X47172Y5586D01*
X47119Y5595D01*
X47071Y5610D01*
X47032Y5629D01*
X47004Y5648D01*
X46980Y5663D01*
X46965Y5672D01*
X46960Y5677D01*
X46927Y5715D01*
X46898Y5754D01*
X46879Y5797D01*
X46869Y5836D01*
X46859Y5869D01*
X46854Y5898D01*
Y5917D01*
Y5922D01*
X46859Y5975D01*
X46869Y6019D01*
X46888Y6062D01*
X46907Y6095D01*
X46927Y6120D01*
X46946Y6144D01*
X46955Y6153D01*
X46960Y6158D01*
X46999Y6192D01*
X47047Y6216D01*
X47090Y6230D01*
X47133Y6245D01*
X47172Y6249D01*
X47201Y6254D01*
X47230D01*
X47287Y6249D01*
D02*
G37*
G36*
X45546Y5258D02*
X45623Y5249D01*
X45695Y5235D01*
X45768Y5210D01*
X45830Y5186D01*
X45893Y5158D01*
X45945Y5129D01*
X45994Y5100D01*
X46042Y5066D01*
X46080Y5037D01*
X46114Y5008D01*
X46138Y4984D01*
X46162Y4960D01*
X46176Y4946D01*
X46186Y4936D01*
X46191Y4932D01*
X46239Y4869D01*
X46282Y4797D01*
X46316Y4725D01*
X46349Y4653D01*
X46374Y4580D01*
X46398Y4503D01*
X46431Y4364D01*
X46441Y4296D01*
X46450Y4234D01*
X46455Y4181D01*
X46460Y4133D01*
X46465Y4095D01*
Y4066D01*
Y4046D01*
Y4042D01*
X46460Y3950D01*
X46455Y3864D01*
X46441Y3782D01*
X46426Y3705D01*
X46407Y3633D01*
X46388Y3570D01*
X46364Y3508D01*
X46340Y3455D01*
X46316Y3407D01*
X46292Y3363D01*
X46273Y3330D01*
X46253Y3296D01*
X46239Y3272D01*
X46224Y3258D01*
X46220Y3248D01*
X46215Y3243D01*
X46167Y3190D01*
X46114Y3147D01*
X46061Y3108D01*
X46003Y3075D01*
X45950Y3046D01*
X45893Y3022D01*
X45787Y2988D01*
X45691Y2964D01*
X45652Y2959D01*
X45614Y2955D01*
X45585Y2950D01*
X45546D01*
X45464Y2955D01*
X45383Y2964D01*
X45311Y2983D01*
X45243Y3008D01*
X45181Y3036D01*
X45123Y3070D01*
X45075Y3104D01*
X45027Y3137D01*
X44988Y3171D01*
X44950Y3205D01*
X44921Y3238D01*
X44897Y3267D01*
X44878Y3291D01*
X44863Y3311D01*
X44858Y3320D01*
X44854Y3325D01*
X44839D01*
Y3142D01*
X44849Y3027D01*
X44868Y2926D01*
X44902Y2839D01*
X44935Y2767D01*
X44974Y2709D01*
X45008Y2666D01*
X45027Y2642D01*
X45036Y2632D01*
X45113Y2570D01*
X45200Y2527D01*
X45291Y2493D01*
X45378Y2473D01*
X45455Y2459D01*
X45489Y2454D01*
X45517D01*
X45541Y2450D01*
X45575D01*
X45705Y2459D01*
X45830Y2478D01*
X45950Y2512D01*
X46051Y2551D01*
X46099Y2565D01*
X46143Y2584D01*
X46176Y2603D01*
X46210Y2618D01*
X46234Y2627D01*
X46253Y2637D01*
X46263Y2647D01*
X46268D01*
Y2098D01*
X46162Y2055D01*
X46046Y2021D01*
X45926Y2002D01*
X45811Y1983D01*
X45758Y1978D01*
X45710Y1973D01*
X45667D01*
X45628Y1969D01*
X45556D01*
X45436Y1973D01*
X45325Y1983D01*
X45219Y1997D01*
X45123Y2021D01*
X45031Y2046D01*
X44950Y2074D01*
X44873Y2103D01*
X44805Y2137D01*
X44748Y2166D01*
X44695Y2195D01*
X44651Y2223D01*
X44613Y2248D01*
X44589Y2272D01*
X44565Y2286D01*
X44555Y2296D01*
X44550Y2300D01*
X44488Y2368D01*
X44435Y2435D01*
X44387Y2512D01*
X44348Y2589D01*
X44315Y2666D01*
X44286Y2743D01*
X44262Y2820D01*
X44243Y2897D01*
X44228Y2969D01*
X44219Y3032D01*
X44209Y3089D01*
X44204Y3142D01*
X44199Y3185D01*
Y3214D01*
Y3238D01*
Y3243D01*
Y5210D01*
X44839D01*
Y4946D01*
X44854D01*
X44892Y5004D01*
X44935Y5052D01*
X44983Y5095D01*
X45036Y5129D01*
X45084Y5162D01*
X45137Y5186D01*
X45234Y5225D01*
X45325Y5249D01*
X45363Y5254D01*
X45397Y5258D01*
X45426Y5263D01*
X45464D01*
X45546Y5258D01*
D02*
G37*
G36*
X34647Y3003D02*
X34002D01*
Y3267D01*
X33997D01*
X33954Y3210D01*
X33911Y3161D01*
X33863Y3118D01*
X33810Y3084D01*
X33762Y3051D01*
X33709Y3027D01*
X33608Y2988D01*
X33516Y2969D01*
X33478Y2959D01*
X33444Y2955D01*
X33415Y2950D01*
X33377D01*
X33295Y2955D01*
X33218Y2964D01*
X33141Y2979D01*
X33074Y3003D01*
X33011Y3027D01*
X32949Y3056D01*
X32896Y3084D01*
X32848Y3118D01*
X32805Y3147D01*
X32766Y3176D01*
X32732Y3205D01*
X32704Y3229D01*
X32684Y3253D01*
X32670Y3267D01*
X32660Y3277D01*
X32655Y3282D01*
X32607Y3349D01*
X32564Y3416D01*
X32530Y3489D01*
X32497Y3561D01*
X32468Y3638D01*
X32449Y3710D01*
X32415Y3849D01*
X32405Y3917D01*
X32396Y3974D01*
X32391Y4027D01*
X32386Y4075D01*
X32381Y4114D01*
Y4143D01*
Y4162D01*
Y4167D01*
X32386Y4263D01*
X32391Y4349D01*
X32405Y4431D01*
X32420Y4508D01*
X32439Y4580D01*
X32458Y4648D01*
X32477Y4705D01*
X32502Y4763D01*
X32526Y4811D01*
X32545Y4850D01*
X32564Y4888D01*
X32583Y4917D01*
X32598Y4941D01*
X32612Y4955D01*
X32617Y4965D01*
X32622Y4970D01*
X32670Y5023D01*
X32718Y5066D01*
X32771Y5105D01*
X32824Y5138D01*
X32877Y5167D01*
X32934Y5191D01*
X33035Y5225D01*
X33132Y5249D01*
X33170Y5254D01*
X33209Y5258D01*
X33237Y5263D01*
X33276D01*
X33362Y5258D01*
X33439Y5249D01*
X33516Y5225D01*
X33584Y5201D01*
X33651Y5172D01*
X33709Y5138D01*
X33762Y5105D01*
X33810Y5066D01*
X33853Y5028D01*
X33892Y4994D01*
X33925Y4960D01*
X33949Y4932D01*
X33968Y4907D01*
X33988Y4888D01*
X33993Y4874D01*
X33997Y4869D01*
X34002D01*
Y6269D01*
X34647D01*
Y3003D01*
D02*
G37*
G36*
X6595Y5254D02*
X6667Y5249D01*
X6734Y5239D01*
X6797Y5230D01*
X6840Y5220D01*
X6859Y5215D01*
X6874D01*
X6879Y5210D01*
X6883D01*
X6970Y5191D01*
X7052Y5167D01*
X7119Y5143D01*
X7177Y5124D01*
X7220Y5105D01*
X7254Y5090D01*
X7278Y5081D01*
X7283Y5076D01*
Y4575D01*
X7215Y4619D01*
X7153Y4657D01*
X7085Y4686D01*
X7018Y4715D01*
X6893Y4758D01*
X6778Y4787D01*
X6729Y4797D01*
X6681Y4802D01*
X6638Y4811D01*
X6604D01*
X6576Y4816D01*
X6537D01*
X6465Y4811D01*
X6407Y4802D01*
X6350Y4782D01*
X6306Y4758D01*
X6268Y4725D01*
X6234Y4696D01*
X6210Y4657D01*
X6186Y4624D01*
X6157Y4552D01*
X6143Y4494D01*
Y4465D01*
X6138Y4446D01*
Y4436D01*
Y4431D01*
X6744Y4349D01*
X6879Y4325D01*
X6994Y4287D01*
X7095Y4244D01*
X7182Y4191D01*
X7259Y4133D01*
X7316Y4070D01*
X7369Y4008D01*
X7408Y3941D01*
X7441Y3878D01*
X7465Y3820D01*
X7480Y3763D01*
X7490Y3714D01*
X7499Y3671D01*
X7504Y3642D01*
Y3623D01*
Y3613D01*
X7494Y3503D01*
X7475Y3407D01*
X7446Y3325D01*
X7408Y3258D01*
X7374Y3200D01*
X7345Y3161D01*
X7326Y3137D01*
X7316Y3128D01*
X7239Y3070D01*
X7158Y3027D01*
X7071Y2993D01*
X6989Y2974D01*
X6922Y2959D01*
X6864Y2954D01*
X6840Y2950D01*
X6811D01*
X6729Y2954D01*
X6657Y2964D01*
X6590Y2983D01*
X6523Y3008D01*
X6465Y3036D01*
X6412Y3065D01*
X6359Y3099D01*
X6316Y3137D01*
X6277Y3171D01*
X6244Y3205D01*
X6215Y3233D01*
X6196Y3262D01*
X6176Y3286D01*
X6162Y3306D01*
X6157Y3315D01*
X6152Y3320D01*
X6143D01*
Y3003D01*
X5527D01*
Y4335D01*
X5532Y4422D01*
X5537Y4499D01*
X5551Y4571D01*
X5565Y4643D01*
X5614Y4768D01*
X5671Y4874D01*
X5743Y4960D01*
X5820Y5037D01*
X5902Y5100D01*
X5989Y5148D01*
X6075Y5186D01*
X6162Y5215D01*
X6239Y5235D01*
X6311Y5249D01*
X6369Y5258D01*
X6417Y5263D01*
X6523D01*
X6595Y5254D01*
D02*
G37*
G36*
X4974Y3003D02*
X4329D01*
Y4095D01*
X4324D01*
X3589Y3003D01*
X2805D01*
X3685Y4167D01*
X2867Y5210D01*
X3637D01*
X4324Y4186D01*
X4329D01*
Y6269D01*
X4974D01*
Y3003D01*
D02*
G37*
G36*
X11477D02*
X10885D01*
Y4749D01*
Y4893D01*
X10890Y5037D01*
X10895Y5167D01*
Y5283D01*
X10900Y5336D01*
Y5384D01*
X10905Y5427D01*
Y5460D01*
X10909Y5489D01*
Y5509D01*
Y5523D01*
Y5528D01*
X10890D01*
X10876Y5465D01*
X10866Y5412D01*
X10857Y5364D01*
X10847Y5321D01*
X10837Y5283D01*
X10828Y5249D01*
X10818Y5191D01*
X10808Y5158D01*
X10799Y5129D01*
X10794Y5119D01*
Y5114D01*
X10019Y3003D01*
X9495D01*
X8735Y5133D01*
X8721Y5182D01*
X8702Y5239D01*
X8687Y5302D01*
X8673Y5369D01*
X8658Y5432D01*
X8649Y5480D01*
X8644Y5499D01*
X8639Y5514D01*
Y5523D01*
Y5528D01*
X8620D01*
X8630Y5388D01*
X8634Y5263D01*
X8644Y5153D01*
Y5057D01*
Y5018D01*
X8649Y4980D01*
Y4951D01*
Y4927D01*
Y4907D01*
Y4893D01*
Y4883D01*
Y4879D01*
Y3003D01*
X7994D01*
Y6091D01*
X8928D01*
X9596Y4229D01*
X9620Y4157D01*
X9644Y4080D01*
X9668Y4008D01*
X9688Y3936D01*
X9702Y3878D01*
X9717Y3830D01*
X9721Y3811D01*
Y3796D01*
X9726Y3791D01*
Y3787D01*
X9741D01*
X9755Y3864D01*
X9769Y3941D01*
X9789Y4017D01*
X9808Y4085D01*
X9822Y4143D01*
X9837Y4186D01*
X9846Y4215D01*
X9851Y4220D01*
Y4224D01*
X10520Y6091D01*
X11477D01*
Y3003D01*
D02*
G37*
G36*
X31333Y3003D02*
X31453Y2719D01*
X31477Y2676D01*
X31501Y2637D01*
X31530Y2599D01*
X31559Y2570D01*
X31616Y2527D01*
X31679Y2498D01*
X31737Y2478D01*
X31780Y2469D01*
X31799Y2464D01*
X31823D01*
X31881Y2469D01*
X31934Y2473D01*
X31982Y2488D01*
X32025Y2502D01*
X32064Y2512D01*
X32088Y2527D01*
X32107Y2531D01*
X32112Y2536D01*
Y2021D01*
X32054Y2002D01*
X31992Y1993D01*
X31929Y1983D01*
X31867Y1973D01*
X31809D01*
X31766Y1969D01*
X31722D01*
X31665Y1973D01*
X31607Y1978D01*
X31501Y2007D01*
X31400Y2046D01*
X31309Y2098D01*
X31222Y2161D01*
X31145Y2233D01*
X31073Y2310D01*
X31010Y2387D01*
X30957Y2464D01*
X30909Y2541D01*
X30866Y2613D01*
X30832Y2676D01*
X30808Y2729D01*
X30789Y2772D01*
X30779Y2796D01*
X30775Y2805D01*
X29861Y5210D01*
X30501D01*
X30943Y3820D01*
X30962Y3758D01*
X30977Y3705D01*
X30986Y3657D01*
X30996Y3618D01*
X31001Y3585D01*
X31006Y3561D01*
X31010Y3546D01*
Y3541D01*
X31020D01*
X31030Y3599D01*
X31039Y3652D01*
X31049Y3700D01*
X31054Y3743D01*
X31063Y3777D01*
X31073Y3801D01*
X31078Y3820D01*
Y3825D01*
X31511Y5210D01*
X32218D01*
X31333Y3003D01*
D02*
G37*
G36*
X26922Y6139D02*
X27057Y6124D01*
X27182Y6100D01*
X27302Y6071D01*
X27413Y6038D01*
X27514Y5999D01*
X27605Y5956D01*
X27692Y5917D01*
X27768Y5874D01*
X27836Y5831D01*
X27889Y5793D01*
X27937Y5759D01*
X27975Y5730D01*
X27999Y5706D01*
X28019Y5691D01*
X28023Y5687D01*
X28105Y5600D01*
X28177Y5504D01*
X28240Y5408D01*
X28293Y5307D01*
X28336Y5210D01*
X28374Y5109D01*
X28408Y5013D01*
X28432Y4922D01*
X28451Y4835D01*
X28466Y4753D01*
X28475Y4681D01*
X28480Y4619D01*
X28485Y4571D01*
X28490Y4532D01*
Y4508D01*
Y4499D01*
X28485Y4369D01*
X28471Y4244D01*
X28451Y4128D01*
X28423Y4018D01*
X28394Y3917D01*
X28355Y3820D01*
X28317Y3739D01*
X28278Y3662D01*
X28240Y3594D01*
X28201Y3532D01*
X28163Y3484D01*
X28134Y3440D01*
X28105Y3407D01*
X28086Y3383D01*
X28071Y3368D01*
X28067Y3363D01*
X27985Y3291D01*
X27893Y3229D01*
X27797Y3171D01*
X27701Y3123D01*
X27605Y3084D01*
X27509Y3051D01*
X27413Y3022D01*
X27321Y3003D01*
X27235Y2983D01*
X27153Y2974D01*
X27081Y2964D01*
X27018Y2955D01*
X26970D01*
X26932Y2950D01*
X26898D01*
X26778Y2955D01*
X26662Y2959D01*
X26551Y2974D01*
X26446Y2988D01*
X26349Y3012D01*
X26258Y3032D01*
X26171Y3056D01*
X26095Y3080D01*
X26027Y3104D01*
X25965Y3128D01*
X25912Y3152D01*
X25868Y3171D01*
X25835Y3185D01*
X25806Y3200D01*
X25791Y3205D01*
X25787Y3210D01*
Y4744D01*
X27071Y4744D01*
Y4215D01*
X26446Y4215D01*
Y3580D01*
X26508Y3556D01*
X26580Y3537D01*
X26648Y3522D01*
X26715Y3512D01*
X26773Y3508D01*
X26821Y3503D01*
X26864D01*
X26941Y3508D01*
X27018Y3512D01*
X27153Y3546D01*
X27215Y3565D01*
X27268Y3590D01*
X27321Y3613D01*
X27369Y3638D01*
X27408Y3662D01*
X27446Y3686D01*
X27475Y3710D01*
X27499Y3729D01*
X27523Y3748D01*
X27538Y3763D01*
X27542Y3767D01*
X27547Y3772D01*
X27591Y3825D01*
X27629Y3883D01*
X27663Y3945D01*
X27692Y4008D01*
X27735Y4133D01*
X27764Y4253D01*
X27778Y4311D01*
X27783Y4359D01*
X27788Y4407D01*
X27793Y4451D01*
X27797Y4479D01*
Y4508D01*
Y4523D01*
Y4527D01*
X27793Y4614D01*
X27788Y4701D01*
X27773Y4778D01*
X27754Y4850D01*
X27735Y4917D01*
X27711Y4984D01*
X27687Y5042D01*
X27658Y5095D01*
X27634Y5138D01*
X27610Y5182D01*
X27586Y5215D01*
X27566Y5244D01*
X27547Y5268D01*
X27533Y5283D01*
X27528Y5292D01*
X27523Y5297D01*
X27470Y5350D01*
X27413Y5393D01*
X27350Y5432D01*
X27292Y5465D01*
X27230Y5494D01*
X27172Y5518D01*
X27057Y5552D01*
X27004Y5566D01*
X26951Y5576D01*
X26908Y5581D01*
X26869Y5586D01*
X26840Y5590D01*
X26701D01*
X26609Y5581D01*
X26523Y5571D01*
X26441Y5557D01*
X26364Y5542D01*
X26292Y5523D01*
X26224Y5504D01*
X26162Y5485D01*
X26109Y5465D01*
X26056Y5446D01*
X26018Y5427D01*
X25979Y5412D01*
X25955Y5398D01*
X25931Y5388D01*
X25921Y5384D01*
X25917Y5379D01*
Y6004D01*
X26061Y6052D01*
X26210Y6086D01*
X26354Y6110D01*
X26489Y6124D01*
X26551Y6134D01*
X26604Y6139D01*
X26657D01*
X26701Y6144D01*
X26782D01*
X26922Y6139D01*
D02*
G37*
G36*
X51068Y5258D02*
X51150Y5249D01*
X51227Y5235D01*
X51304Y5210D01*
X51371Y5186D01*
X51438Y5158D01*
X51496Y5129D01*
X51549Y5100D01*
X51597Y5066D01*
X51640Y5037D01*
X51679Y5008D01*
X51708Y4984D01*
X51732Y4960D01*
X51751Y4946D01*
X51761Y4936D01*
X51766Y4932D01*
X51818Y4869D01*
X51867Y4802D01*
X51910Y4729D01*
X51948Y4657D01*
X51977Y4585D01*
X52001Y4513D01*
X52040Y4378D01*
X52054Y4316D01*
X52064Y4253D01*
X52069Y4205D01*
X52073Y4157D01*
X52078Y4123D01*
Y4095D01*
Y4075D01*
Y4070D01*
X52073Y3974D01*
X52064Y3883D01*
X52049Y3796D01*
X52030Y3719D01*
X52011Y3642D01*
X51987Y3575D01*
X51958Y3512D01*
X51929Y3460D01*
X51905Y3407D01*
X51876Y3363D01*
X51852Y3330D01*
X51828Y3296D01*
X51814Y3272D01*
X51799Y3258D01*
X51790Y3248D01*
X51785Y3243D01*
X51727Y3190D01*
X51665Y3147D01*
X51602Y3108D01*
X51535Y3075D01*
X51467Y3046D01*
X51395Y3022D01*
X51265Y2988D01*
X51203Y2974D01*
X51150Y2964D01*
X51097Y2959D01*
X51054Y2955D01*
X51015Y2950D01*
X50967D01*
X50794Y2959D01*
X50712Y2964D01*
X50635Y2979D01*
X50568Y2988D01*
X50501Y3003D01*
X50438Y3017D01*
X50385Y3036D01*
X50337Y3051D01*
X50294Y3065D01*
X50260Y3080D01*
X50226Y3094D01*
X50202Y3104D01*
X50188Y3113D01*
X50178Y3118D01*
X50173D01*
Y3590D01*
X50279Y3532D01*
X50390Y3489D01*
X50501Y3455D01*
X50602Y3435D01*
X50688Y3421D01*
X50727Y3416D01*
X50755D01*
X50784Y3412D01*
X50818D01*
X50924Y3416D01*
X51015Y3435D01*
X51092Y3460D01*
X51164Y3493D01*
X51222Y3532D01*
X51270Y3575D01*
X51313Y3618D01*
X51347Y3666D01*
X51376Y3714D01*
X51395Y3758D01*
X51414Y3801D01*
X51424Y3840D01*
X51434Y3873D01*
Y3897D01*
X51438Y3917D01*
Y3921D01*
X49986D01*
Y4196D01*
X49991Y4287D01*
X49995Y4374D01*
X50010Y4451D01*
X50029Y4527D01*
X50048Y4595D01*
X50068Y4662D01*
X50092Y4720D01*
X50116Y4773D01*
X50145Y4816D01*
X50169Y4859D01*
X50188Y4893D01*
X50207Y4922D01*
X50226Y4946D01*
X50241Y4960D01*
X50246Y4970D01*
X50250Y4975D01*
X50303Y5028D01*
X50356Y5071D01*
X50414Y5109D01*
X50476Y5143D01*
X50539Y5172D01*
X50597Y5191D01*
X50717Y5230D01*
X50770Y5239D01*
X50818Y5249D01*
X50866Y5254D01*
X50905Y5258D01*
X50938Y5263D01*
X50981D01*
X51068Y5258D01*
D02*
G37*
G36*
X40087D02*
X40169Y5249D01*
X40246Y5235D01*
X40323Y5210D01*
X40390Y5186D01*
X40457Y5158D01*
X40515Y5129D01*
X40568Y5100D01*
X40616Y5066D01*
X40659Y5037D01*
X40698Y5008D01*
X40727Y4984D01*
X40751Y4960D01*
X40770Y4946D01*
X40780Y4936D01*
X40784Y4932D01*
X40837Y4869D01*
X40885Y4802D01*
X40929Y4729D01*
X40967Y4657D01*
X40996Y4585D01*
X41020Y4513D01*
X41058Y4378D01*
X41073Y4316D01*
X41083Y4253D01*
X41087Y4205D01*
X41092Y4157D01*
X41097Y4123D01*
Y4095D01*
Y4075D01*
Y4070D01*
X41092Y3974D01*
X41083Y3883D01*
X41068Y3796D01*
X41049Y3719D01*
X41030Y3642D01*
X41006Y3575D01*
X40977Y3512D01*
X40948Y3460D01*
X40924Y3407D01*
X40895Y3363D01*
X40871Y3330D01*
X40847Y3296D01*
X40832Y3272D01*
X40818Y3258D01*
X40808Y3248D01*
X40804Y3243D01*
X40746Y3190D01*
X40683Y3147D01*
X40621Y3108D01*
X40553Y3075D01*
X40486Y3046D01*
X40414Y3022D01*
X40284Y2988D01*
X40222Y2974D01*
X40169Y2964D01*
X40116Y2959D01*
X40072Y2955D01*
X40034Y2950D01*
X39986D01*
X39813Y2959D01*
X39731Y2964D01*
X39654Y2979D01*
X39587Y2988D01*
X39519Y3003D01*
X39457Y3017D01*
X39404Y3036D01*
X39356Y3051D01*
X39312Y3065D01*
X39279Y3080D01*
X39245Y3094D01*
X39221Y3104D01*
X39207Y3113D01*
X39197Y3118D01*
X39192D01*
Y3590D01*
X39298Y3532D01*
X39409Y3489D01*
X39519Y3455D01*
X39620Y3435D01*
X39707Y3421D01*
X39745Y3416D01*
X39774D01*
X39803Y3412D01*
X39837D01*
X39943Y3416D01*
X40034Y3435D01*
X40111Y3460D01*
X40183Y3493D01*
X40241Y3532D01*
X40289Y3575D01*
X40332Y3618D01*
X40366Y3666D01*
X40395Y3714D01*
X40414Y3758D01*
X40433Y3801D01*
X40443Y3840D01*
X40452Y3873D01*
Y3897D01*
X40457Y3917D01*
Y3921D01*
X39005D01*
Y4196D01*
X39009Y4287D01*
X39014Y4374D01*
X39029Y4451D01*
X39048Y4527D01*
X39067Y4595D01*
X39086Y4662D01*
X39110Y4720D01*
X39134Y4773D01*
X39163Y4816D01*
X39187Y4859D01*
X39207Y4893D01*
X39226Y4922D01*
X39245Y4946D01*
X39259Y4960D01*
X39264Y4970D01*
X39269Y4975D01*
X39322Y5028D01*
X39375Y5071D01*
X39433Y5109D01*
X39495Y5143D01*
X39558Y5172D01*
X39615Y5191D01*
X39736Y5230D01*
X39789Y5239D01*
X39837Y5249D01*
X39885Y5254D01*
X39923Y5258D01*
X39957Y5263D01*
X40000D01*
X40087Y5258D01*
D02*
G37*
G36*
X55118Y3003D02*
X54055D01*
X53920Y3008D01*
X53795Y3022D01*
X53675Y3041D01*
X53560Y3070D01*
X53454Y3104D01*
X53358Y3142D01*
X53266Y3181D01*
X53184Y3219D01*
X53112Y3258D01*
X53050Y3301D01*
X52997Y3334D01*
X52949Y3368D01*
X52915Y3397D01*
X52886Y3416D01*
X52872Y3431D01*
X52867Y3435D01*
X52785Y3522D01*
X52713Y3609D01*
X52651Y3705D01*
X52598Y3796D01*
X52554Y3892D01*
X52516Y3989D01*
X52487Y4085D01*
X52463Y4171D01*
X52444Y4258D01*
X52429Y4335D01*
X52420Y4407D01*
X52410Y4465D01*
Y4518D01*
X52405Y4552D01*
Y4575D01*
Y4585D01*
X52410Y4720D01*
X52425Y4850D01*
X52444Y4970D01*
X52477Y5081D01*
X52511Y5186D01*
X52559Y5283D01*
X52607Y5374D01*
X52660Y5456D01*
X52723Y5533D01*
X52785Y5600D01*
X52853Y5667D01*
X52925Y5725D01*
X52997Y5778D01*
X53074Y5821D01*
X53151Y5865D01*
X53228Y5903D01*
X53382Y5966D01*
X53531Y6014D01*
X53670Y6043D01*
X53733Y6057D01*
X53795Y6067D01*
X53848Y6076D01*
X53896Y6081D01*
X53944Y6086D01*
X53978D01*
X54012Y6091D01*
X55118D01*
Y3003D01*
D02*
G37*
G36*
X47557D02*
X46912D01*
Y5210D01*
X47557D01*
Y3003D01*
D02*
G37*
G36*
X42338Y5258D02*
X42415Y5244D01*
X42492Y5225D01*
X42559Y5201D01*
X42627Y5167D01*
X42684Y5133D01*
X42737Y5095D01*
X42785Y5061D01*
X42824Y5023D01*
X42862Y4984D01*
X42891Y4951D01*
X42920Y4917D01*
X42939Y4893D01*
X42954Y4874D01*
X42958Y4859D01*
X42963Y4854D01*
X42968D01*
Y5210D01*
X43613D01*
Y3003D01*
X42968D01*
Y4258D01*
X42963Y4340D01*
X42949Y4407D01*
X42930Y4470D01*
X42906Y4523D01*
X42886Y4566D01*
X42867Y4600D01*
X42853Y4619D01*
X42848Y4624D01*
X42800Y4672D01*
X42752Y4705D01*
X42699Y4734D01*
X42651Y4749D01*
X42607Y4758D01*
X42574Y4768D01*
X42545D01*
X42477Y4763D01*
X42420Y4744D01*
X42367Y4720D01*
X42323Y4686D01*
X42285Y4643D01*
X42251Y4600D01*
X42227Y4552D01*
X42208Y4503D01*
X42179Y4402D01*
X42170Y4359D01*
X42165Y4316D01*
X42160Y4282D01*
Y4258D01*
Y4239D01*
Y4234D01*
Y3003D01*
X41515D01*
Y4349D01*
Y4431D01*
X41525Y4508D01*
X41535Y4585D01*
X41549Y4653D01*
X41583Y4773D01*
X41631Y4879D01*
X41684Y4965D01*
X41746Y5042D01*
X41814Y5100D01*
X41881Y5148D01*
X41953Y5186D01*
X42020Y5215D01*
X42078Y5235D01*
X42136Y5249D01*
X42184Y5258D01*
X42218Y5263D01*
X42251D01*
X42338Y5258D01*
D02*
G37*
G36*
X21390Y5239D02*
X21458Y5225D01*
X21525Y5201D01*
X21583Y5172D01*
X21636Y5138D01*
X21684Y5100D01*
X21727Y5061D01*
X21761Y5018D01*
X21794Y4975D01*
X21823Y4936D01*
X21847Y4898D01*
X21862Y4864D01*
X21876Y4835D01*
X21886Y4811D01*
X21895Y4797D01*
Y4792D01*
X21900D01*
Y5210D01*
X22545D01*
Y3003D01*
X21900D01*
Y4061D01*
X21895Y4167D01*
X21881Y4258D01*
X21862Y4335D01*
X21838Y4402D01*
X21814Y4455D01*
X21794Y4494D01*
X21780Y4513D01*
X21775Y4523D01*
X21722Y4580D01*
X21665Y4619D01*
X21607Y4648D01*
X21549Y4672D01*
X21501Y4681D01*
X21463Y4686D01*
X21434Y4691D01*
X21424D01*
X21362Y4686D01*
X21309Y4681D01*
X21260Y4672D01*
X21217Y4657D01*
X21184Y4643D01*
X21159Y4633D01*
X21145Y4628D01*
X21140Y4624D01*
Y5220D01*
X21164Y5230D01*
X21193Y5235D01*
X21246Y5239D01*
X21275Y5244D01*
X21313D01*
X21390Y5239D01*
D02*
G37*
G36*
X14132Y5258D02*
X14209Y5244D01*
X14286Y5225D01*
X14353Y5201D01*
X14421Y5167D01*
X14478Y5133D01*
X14531Y5095D01*
X14579Y5061D01*
X14618Y5023D01*
X14656Y4984D01*
X14685Y4951D01*
X14714Y4917D01*
X14733Y4893D01*
X14748Y4874D01*
X14753Y4859D01*
X14757Y4854D01*
X14762D01*
Y5210D01*
X15407D01*
Y3003D01*
X14762D01*
Y4258D01*
X14757Y4340D01*
X14743Y4407D01*
X14724Y4470D01*
X14700Y4523D01*
X14680Y4566D01*
X14661Y4600D01*
X14647Y4619D01*
X14642Y4624D01*
X14594Y4672D01*
X14546Y4705D01*
X14493Y4734D01*
X14445Y4749D01*
X14401Y4758D01*
X14368Y4768D01*
X14339D01*
X14272Y4763D01*
X14214Y4744D01*
X14161Y4720D01*
X14118Y4686D01*
X14079Y4643D01*
X14045Y4600D01*
X14021Y4552D01*
X14002Y4503D01*
X13973Y4402D01*
X13964Y4359D01*
X13959Y4316D01*
X13954Y4282D01*
Y4258D01*
Y4239D01*
Y4234D01*
Y3003D01*
X13310D01*
Y4349D01*
Y4431D01*
X13319Y4508D01*
X13329Y4585D01*
X13343Y4653D01*
X13377Y4773D01*
X13425Y4879D01*
X13478Y4965D01*
X13541Y5042D01*
X13608Y5100D01*
X13675Y5148D01*
X13747Y5186D01*
X13815Y5215D01*
X13872Y5235D01*
X13930Y5249D01*
X13978Y5258D01*
X14012Y5263D01*
X14045D01*
X14132Y5258D01*
D02*
G37*
G36*
X48822Y5254D02*
X48957Y5235D01*
X49077Y5206D01*
X49125Y5186D01*
X49173Y5172D01*
X49216Y5153D01*
X49255Y5133D01*
X49284Y5119D01*
X49312Y5105D01*
X49332Y5095D01*
X49346Y5085D01*
X49356Y5076D01*
X49360D01*
X49409Y5042D01*
X49447Y5004D01*
X49481Y4960D01*
X49514Y4917D01*
X49563Y4835D01*
X49591Y4753D01*
X49611Y4681D01*
X49615Y4648D01*
X49620Y4619D01*
X49625Y4600D01*
Y4580D01*
Y4571D01*
Y4566D01*
X49620Y4470D01*
X49601Y4388D01*
X49577Y4316D01*
X49548Y4253D01*
X49519Y4205D01*
X49495Y4171D01*
X49476Y4152D01*
X49471Y4143D01*
X49437Y4114D01*
X49404Y4085D01*
X49317Y4032D01*
X49226Y3984D01*
X49130Y3945D01*
X49043Y3907D01*
X49005Y3892D01*
X48971Y3883D01*
X48942Y3873D01*
X48923Y3864D01*
X48908Y3859D01*
X48904D01*
X48846Y3840D01*
X48798Y3820D01*
X48750Y3796D01*
X48716Y3777D01*
X48682Y3753D01*
X48658Y3734D01*
X48615Y3695D01*
X48596Y3657D01*
X48581Y3628D01*
X48577Y3609D01*
Y3604D01*
X48581Y3565D01*
X48596Y3537D01*
X48615Y3508D01*
X48639Y3484D01*
X48702Y3445D01*
X48774Y3421D01*
X48851Y3402D01*
X48913Y3397D01*
X48937Y3392D01*
X48976D01*
X49096Y3402D01*
X49211Y3426D01*
X49322Y3455D01*
X49418Y3493D01*
X49505Y3532D01*
X49538Y3546D01*
X49567Y3561D01*
X49591Y3575D01*
X49611Y3585D01*
X49620Y3594D01*
X49625D01*
Y3060D01*
X49510Y3022D01*
X49389Y2998D01*
X49279Y2979D01*
X49173Y2964D01*
X49130Y2959D01*
X49086Y2955D01*
X49048D01*
X49019Y2950D01*
X48957D01*
X48793Y2959D01*
X48721Y2969D01*
X48649Y2979D01*
X48586Y2993D01*
X48524Y3008D01*
X48471Y3027D01*
X48423Y3046D01*
X48379Y3060D01*
X48341Y3080D01*
X48307Y3094D01*
X48278Y3108D01*
X48259Y3118D01*
X48245Y3128D01*
X48235Y3137D01*
X48230D01*
X48182Y3176D01*
X48139Y3214D01*
X48105Y3258D01*
X48072Y3301D01*
X48043Y3344D01*
X48023Y3387D01*
X47990Y3474D01*
X47970Y3551D01*
X47966Y3580D01*
X47961Y3609D01*
X47956Y3633D01*
Y3652D01*
Y3662D01*
Y3666D01*
X47961Y3729D01*
X47966Y3787D01*
X47980Y3840D01*
X47995Y3888D01*
X48009Y3921D01*
X48019Y3950D01*
X48028Y3969D01*
X48033Y3974D01*
X48067Y4022D01*
X48100Y4066D01*
X48139Y4104D01*
X48177Y4133D01*
X48211Y4157D01*
X48240Y4176D01*
X48259Y4186D01*
X48264Y4191D01*
X48326Y4224D01*
X48399Y4253D01*
X48471Y4287D01*
X48543Y4311D01*
X48610Y4335D01*
X48663Y4354D01*
X48682Y4364D01*
X48697Y4369D01*
X48706Y4374D01*
X48711D01*
X48759Y4393D01*
X48803Y4412D01*
X48841Y4431D01*
X48870Y4451D01*
X48899Y4470D01*
X48923Y4494D01*
X48957Y4532D01*
X48976Y4566D01*
X48985Y4595D01*
X48990Y4614D01*
Y4619D01*
X48985Y4648D01*
X48976Y4676D01*
X48942Y4720D01*
X48913Y4749D01*
X48904Y4758D01*
X48899D01*
X48860Y4778D01*
X48817Y4792D01*
X48735Y4811D01*
X48702D01*
X48673Y4816D01*
X48649D01*
X48538Y4811D01*
X48432Y4792D01*
X48336Y4768D01*
X48249Y4744D01*
X48182Y4715D01*
X48129Y4691D01*
X48110Y4681D01*
X48096Y4672D01*
X48091Y4667D01*
X48086D01*
Y5172D01*
X48192Y5201D01*
X48293Y5225D01*
X48394Y5239D01*
X48480Y5254D01*
X48557Y5258D01*
X48591D01*
X48615Y5263D01*
X48668D01*
X48822Y5254D01*
D02*
G37*
G36*
X37095Y4951D02*
X37105D01*
X37138Y5004D01*
X37182Y5052D01*
X37225Y5095D01*
X37273Y5133D01*
X37321Y5162D01*
X37374Y5186D01*
X37470Y5225D01*
X37566Y5249D01*
X37605Y5254D01*
X37639Y5258D01*
X37667Y5263D01*
X37711D01*
X37793Y5258D01*
X37870Y5249D01*
X37942Y5235D01*
X38014Y5210D01*
X38076Y5186D01*
X38139Y5158D01*
X38192Y5129D01*
X38240Y5100D01*
X38288Y5066D01*
X38326Y5037D01*
X38360Y5008D01*
X38384Y4984D01*
X38408Y4960D01*
X38423Y4946D01*
X38432Y4936D01*
X38437Y4932D01*
X38485Y4869D01*
X38528Y4797D01*
X38567Y4729D01*
X38596Y4653D01*
X38625Y4580D01*
X38649Y4508D01*
X38682Y4369D01*
X38692Y4306D01*
X38702Y4244D01*
X38706Y4191D01*
X38711Y4147D01*
X38716Y4109D01*
Y4080D01*
Y4061D01*
Y4056D01*
X38711Y3965D01*
X38706Y3873D01*
X38692Y3791D01*
X38677Y3710D01*
X38658Y3638D01*
X38639Y3575D01*
X38615Y3512D01*
X38591Y3455D01*
X38572Y3407D01*
X38548Y3363D01*
X38528Y3330D01*
X38509Y3296D01*
X38495Y3272D01*
X38480Y3258D01*
X38475Y3248D01*
X38471Y3243D01*
X38423Y3190D01*
X38370Y3147D01*
X38317Y3108D01*
X38259Y3075D01*
X38201Y3046D01*
X38148Y3022D01*
X38038Y2988D01*
X37946Y2964D01*
X37903Y2959D01*
X37870Y2955D01*
X37836Y2950D01*
X37797D01*
X37716Y2955D01*
X37639Y2964D01*
X37562Y2983D01*
X37494Y3008D01*
X37432Y3032D01*
X37379Y3065D01*
X37326Y3099D01*
X37278Y3133D01*
X37239Y3166D01*
X37201Y3195D01*
X37172Y3229D01*
X37148Y3253D01*
X37129Y3277D01*
X37114Y3296D01*
X37110Y3306D01*
X37105Y3311D01*
X37095D01*
Y3003D01*
X36455D01*
Y6269D01*
X37095D01*
Y4951D01*
D02*
G37*
G36*
X24267Y5258D02*
X24363Y5249D01*
X24450Y5235D01*
X24531Y5215D01*
X24613Y5191D01*
X24685Y5162D01*
X24748Y5138D01*
X24810Y5109D01*
X24863Y5076D01*
X24906Y5052D01*
X24950Y5023D01*
X24983Y4999D01*
X25008Y4980D01*
X25027Y4965D01*
X25036Y4955D01*
X25041Y4951D01*
X25099Y4888D01*
X25147Y4826D01*
X25190Y4753D01*
X25229Y4686D01*
X25262Y4614D01*
X25286Y4542D01*
X25325Y4407D01*
X25339Y4340D01*
X25349Y4282D01*
X25359Y4229D01*
X25363Y4186D01*
X25368Y4147D01*
Y4119D01*
Y4099D01*
Y4095D01*
X25363Y3998D01*
X25354Y3907D01*
X25339Y3820D01*
X25320Y3739D01*
X25296Y3666D01*
X25267Y3599D01*
X25238Y3537D01*
X25210Y3479D01*
X25181Y3426D01*
X25152Y3383D01*
X25123Y3344D01*
X25099Y3315D01*
X25080Y3291D01*
X25065Y3272D01*
X25056Y3262D01*
X25051Y3258D01*
X24988Y3205D01*
X24921Y3157D01*
X24854Y3113D01*
X24781Y3080D01*
X24709Y3051D01*
X24642Y3027D01*
X24502Y2988D01*
X24440Y2974D01*
X24382Y2964D01*
X24329Y2959D01*
X24281Y2954D01*
X24248Y2950D01*
X24195D01*
X24094Y2954D01*
X23997Y2964D01*
X23911Y2979D01*
X23829Y2998D01*
X23747Y3022D01*
X23680Y3051D01*
X23613Y3080D01*
X23555Y3108D01*
X23502Y3137D01*
X23454Y3166D01*
X23415Y3195D01*
X23382Y3219D01*
X23358Y3238D01*
X23338Y3253D01*
X23329Y3262D01*
X23324Y3267D01*
X23266Y3330D01*
X23218Y3397D01*
X23175Y3469D01*
X23136Y3537D01*
X23108Y3609D01*
X23079Y3681D01*
X23040Y3820D01*
X23031Y3883D01*
X23021Y3945D01*
X23011Y3998D01*
X23007Y4042D01*
X23002Y4080D01*
Y4109D01*
Y4128D01*
Y4133D01*
X23007Y4229D01*
X23016Y4316D01*
X23031Y4402D01*
X23050Y4479D01*
X23074Y4552D01*
X23103Y4619D01*
X23132Y4681D01*
X23160Y4739D01*
X23189Y4787D01*
X23218Y4830D01*
X23247Y4869D01*
X23271Y4898D01*
X23290Y4922D01*
X23305Y4941D01*
X23314Y4951D01*
X23319Y4955D01*
X23382Y5008D01*
X23444Y5057D01*
X23512Y5100D01*
X23584Y5133D01*
X23656Y5162D01*
X23723Y5186D01*
X23858Y5225D01*
X23920Y5239D01*
X23978Y5249D01*
X24031Y5254D01*
X24079Y5258D01*
X24113Y5263D01*
X24166D01*
X24267Y5258D01*
D02*
G37*
G36*
X19327Y4951D02*
X19336D01*
X19370Y5004D01*
X19413Y5052D01*
X19457Y5095D01*
X19505Y5133D01*
X19553Y5162D01*
X19606Y5186D01*
X19702Y5225D01*
X19798Y5249D01*
X19837Y5254D01*
X19870Y5258D01*
X19899Y5263D01*
X19943D01*
X20024Y5258D01*
X20101Y5249D01*
X20174Y5235D01*
X20246Y5210D01*
X20308Y5186D01*
X20371Y5158D01*
X20424Y5129D01*
X20472Y5100D01*
X20520Y5066D01*
X20558Y5037D01*
X20592Y5008D01*
X20616Y4984D01*
X20640Y4960D01*
X20654Y4946D01*
X20664Y4936D01*
X20669Y4932D01*
X20717Y4869D01*
X20760Y4797D01*
X20799Y4729D01*
X20828Y4653D01*
X20856Y4580D01*
X20880Y4508D01*
X20914Y4369D01*
X20924Y4306D01*
X20933Y4244D01*
X20938Y4191D01*
X20943Y4147D01*
X20948Y4109D01*
Y4080D01*
Y4061D01*
Y4056D01*
X20943Y3965D01*
X20938Y3873D01*
X20924Y3791D01*
X20909Y3710D01*
X20890Y3638D01*
X20871Y3575D01*
X20847Y3512D01*
X20823Y3455D01*
X20804Y3407D01*
X20779Y3363D01*
X20760Y3330D01*
X20741Y3296D01*
X20727Y3272D01*
X20712Y3258D01*
X20707Y3248D01*
X20703Y3243D01*
X20654Y3190D01*
X20602Y3147D01*
X20549Y3108D01*
X20491Y3075D01*
X20433Y3046D01*
X20380Y3022D01*
X20270Y2988D01*
X20178Y2964D01*
X20135Y2959D01*
X20101Y2954D01*
X20068Y2950D01*
X20029D01*
X19947Y2954D01*
X19870Y2964D01*
X19794Y2983D01*
X19726Y3008D01*
X19664Y3032D01*
X19611Y3065D01*
X19558Y3099D01*
X19510Y3133D01*
X19471Y3166D01*
X19433Y3195D01*
X19404Y3229D01*
X19380Y3253D01*
X19361Y3277D01*
X19346Y3296D01*
X19341Y3306D01*
X19336Y3311D01*
X19327D01*
Y3003D01*
X18687D01*
Y6269D01*
X19327D01*
Y4951D01*
D02*
G37*
G36*
X17129Y5258D02*
X17225Y5249D01*
X17312Y5235D01*
X17393Y5215D01*
X17475Y5191D01*
X17547Y5162D01*
X17610Y5138D01*
X17672Y5109D01*
X17725Y5076D01*
X17768Y5052D01*
X17812Y5023D01*
X17845Y4999D01*
X17869Y4980D01*
X17889Y4965D01*
X17898Y4955D01*
X17903Y4951D01*
X17961Y4888D01*
X18009Y4826D01*
X18052Y4753D01*
X18091Y4686D01*
X18124Y4614D01*
X18148Y4542D01*
X18187Y4407D01*
X18201Y4340D01*
X18211Y4282D01*
X18221Y4229D01*
X18225Y4186D01*
X18230Y4147D01*
Y4119D01*
Y4099D01*
Y4095D01*
X18225Y3998D01*
X18216Y3907D01*
X18201Y3820D01*
X18182Y3739D01*
X18158Y3666D01*
X18129Y3599D01*
X18100Y3537D01*
X18071Y3479D01*
X18043Y3426D01*
X18014Y3383D01*
X17985Y3344D01*
X17961Y3315D01*
X17942Y3291D01*
X17927Y3272D01*
X17918Y3262D01*
X17913Y3258D01*
X17850Y3205D01*
X17783Y3157D01*
X17716Y3113D01*
X17643Y3080D01*
X17571Y3051D01*
X17504Y3027D01*
X17364Y2988D01*
X17302Y2974D01*
X17244Y2964D01*
X17191Y2959D01*
X17143Y2954D01*
X17109Y2950D01*
X17057D01*
X16956Y2954D01*
X16859Y2964D01*
X16773Y2979D01*
X16691Y2998D01*
X16609Y3022D01*
X16542Y3051D01*
X16475Y3080D01*
X16417Y3108D01*
X16364Y3137D01*
X16316Y3166D01*
X16277Y3195D01*
X16244Y3219D01*
X16220Y3238D01*
X16200Y3253D01*
X16191Y3262D01*
X16186Y3267D01*
X16128Y3330D01*
X16080Y3397D01*
X16037Y3469D01*
X15998Y3537D01*
X15969Y3609D01*
X15941Y3681D01*
X15902Y3820D01*
X15893Y3883D01*
X15883Y3945D01*
X15873Y3998D01*
X15868Y4042D01*
X15864Y4080D01*
Y4109D01*
Y4128D01*
Y4133D01*
X15868Y4229D01*
X15878Y4316D01*
X15893Y4402D01*
X15912Y4479D01*
X15936Y4552D01*
X15965Y4619D01*
X15994Y4681D01*
X16022Y4739D01*
X16051Y4787D01*
X16080Y4830D01*
X16109Y4869D01*
X16133Y4898D01*
X16152Y4922D01*
X16167Y4941D01*
X16176Y4951D01*
X16181Y4955D01*
X16244Y5008D01*
X16306Y5057D01*
X16374Y5100D01*
X16446Y5133D01*
X16518Y5162D01*
X16585Y5186D01*
X16720Y5225D01*
X16782Y5239D01*
X16840Y5249D01*
X16893Y5254D01*
X16941Y5258D01*
X16975Y5263D01*
X17028D01*
X17129Y5258D01*
D02*
G37*
%LPC*%
G36*
X45311Y4768D02*
X45301D01*
X45229Y4763D01*
X45161Y4744D01*
X45109Y4720D01*
X45060Y4691D01*
X45022Y4662D01*
X44993Y4638D01*
X44974Y4619D01*
X44969Y4614D01*
X44926Y4556D01*
X44892Y4494D01*
X44868Y4431D01*
X44849Y4374D01*
X44839Y4321D01*
X44834Y4282D01*
Y4253D01*
Y4248D01*
Y4244D01*
Y4051D01*
X44839Y3955D01*
X44854Y3868D01*
X44878Y3791D01*
X44902Y3729D01*
X44930Y3676D01*
X44950Y3642D01*
X44969Y3618D01*
X44974Y3609D01*
X45027Y3551D01*
X45084Y3512D01*
X45147Y3484D01*
X45200Y3460D01*
X45253Y3450D01*
X45291Y3445D01*
X45320Y3440D01*
X45330D01*
X45407Y3450D01*
X45474Y3469D01*
X45537Y3493D01*
X45585Y3527D01*
X45628Y3556D01*
X45657Y3585D01*
X45676Y3604D01*
X45681Y3609D01*
X45724Y3676D01*
X45758Y3753D01*
X45777Y3825D01*
X45796Y3902D01*
X45806Y3965D01*
X45811Y4018D01*
Y4037D01*
Y4051D01*
Y4061D01*
Y4066D01*
X45806Y4181D01*
X45792Y4287D01*
X45768Y4374D01*
X45743Y4446D01*
X45719Y4503D01*
X45695Y4547D01*
X45681Y4571D01*
X45676Y4580D01*
X45618Y4643D01*
X45561Y4691D01*
X45498Y4725D01*
X45436Y4744D01*
X45383Y4758D01*
X45339Y4763D01*
X45311Y4768D01*
D02*
G37*
G36*
X33550D02*
X33516D01*
X33435Y4763D01*
X33367Y4744D01*
X33310Y4715D01*
X33257Y4686D01*
X33218Y4657D01*
X33194Y4628D01*
X33175Y4609D01*
X33170Y4604D01*
X33127Y4542D01*
X33098Y4470D01*
X33074Y4393D01*
X33059Y4325D01*
X33050Y4258D01*
X33045Y4210D01*
Y4191D01*
Y4176D01*
Y4167D01*
Y4162D01*
X33050Y4042D01*
X33064Y3931D01*
X33088Y3840D01*
X33112Y3767D01*
X33136Y3705D01*
X33160Y3662D01*
X33175Y3638D01*
X33180Y3628D01*
X33233Y3565D01*
X33295Y3517D01*
X33358Y3489D01*
X33415Y3464D01*
X33473Y3450D01*
X33516Y3445D01*
X33545Y3440D01*
X33555D01*
X33627Y3445D01*
X33690Y3464D01*
X33747Y3489D01*
X33795Y3517D01*
X33834Y3541D01*
X33863Y3565D01*
X33882Y3585D01*
X33887Y3590D01*
X33930Y3647D01*
X33959Y3710D01*
X33983Y3772D01*
X33997Y3830D01*
X34007Y3878D01*
X34012Y3921D01*
Y3945D01*
Y3955D01*
Y4191D01*
X34007Y4282D01*
X33988Y4364D01*
X33968Y4436D01*
X33940Y4494D01*
X33916Y4542D01*
X33892Y4575D01*
X33877Y4600D01*
X33872Y4604D01*
X33815Y4657D01*
X33757Y4701D01*
X33699Y4729D01*
X33641Y4749D01*
X33593Y4758D01*
X33550Y4768D01*
D02*
G37*
G36*
X6138Y4056D02*
Y3897D01*
X6143Y3825D01*
X6157Y3758D01*
X6181Y3695D01*
X6200Y3647D01*
X6225Y3604D01*
X6248Y3575D01*
X6263Y3556D01*
X6268Y3551D01*
X6316Y3503D01*
X6369Y3469D01*
X6426Y3445D01*
X6475Y3431D01*
X6523Y3421D01*
X6556Y3412D01*
X6590D01*
X6643Y3416D01*
X6686Y3421D01*
X6725Y3435D01*
X6758Y3450D01*
X6787Y3460D01*
X6807Y3474D01*
X6816Y3479D01*
X6821Y3484D01*
X6850Y3512D01*
X6869Y3546D01*
X6883Y3580D01*
X6893Y3613D01*
X6898Y3642D01*
X6903Y3666D01*
Y3681D01*
Y3686D01*
X6898Y3734D01*
X6888Y3777D01*
X6869Y3816D01*
X6850Y3849D01*
X6792Y3902D01*
X6729Y3945D01*
X6667Y3969D01*
X6609Y3989D01*
X6590Y3994D01*
X6571Y3998D01*
X6556D01*
X6138Y4056D01*
D02*
G37*
G36*
X51015Y4821D02*
X50986D01*
X50914Y4816D01*
X50857Y4802D01*
X50799Y4778D01*
X50755Y4744D01*
X50717Y4705D01*
X50683Y4662D01*
X50659Y4619D01*
X50635Y4575D01*
X50606Y4484D01*
X50602Y4441D01*
X50592Y4402D01*
Y4374D01*
X50587Y4345D01*
Y4330D01*
Y4325D01*
X51438D01*
X51424Y4407D01*
X51400Y4479D01*
X51376Y4537D01*
X51352Y4590D01*
X51328Y4633D01*
X51304Y4662D01*
X51289Y4681D01*
X51284Y4686D01*
X51236Y4729D01*
X51183Y4763D01*
X51131Y4787D01*
X51087Y4806D01*
X51044Y4816D01*
X51015Y4821D01*
D02*
G37*
G36*
X40034D02*
X40005D01*
X39933Y4816D01*
X39875Y4802D01*
X39818Y4778D01*
X39774Y4744D01*
X39736Y4705D01*
X39702Y4662D01*
X39678Y4619D01*
X39654Y4575D01*
X39625Y4484D01*
X39620Y4441D01*
X39611Y4402D01*
Y4374D01*
X39606Y4345D01*
Y4330D01*
Y4325D01*
X40457D01*
X40443Y4407D01*
X40419Y4479D01*
X40395Y4537D01*
X40371Y4590D01*
X40347Y4633D01*
X40323Y4662D01*
X40308Y4681D01*
X40303Y4686D01*
X40255Y4729D01*
X40202Y4763D01*
X40149Y4787D01*
X40106Y4806D01*
X40063Y4816D01*
X40034Y4821D01*
D02*
G37*
G36*
X54459Y5552D02*
X54103D01*
X54021Y5547D01*
X53944Y5542D01*
X53800Y5514D01*
X53738Y5494D01*
X53675Y5470D01*
X53622Y5446D01*
X53574Y5422D01*
X53526Y5398D01*
X53487Y5374D01*
X53454Y5355D01*
X53425Y5331D01*
X53406Y5316D01*
X53391Y5302D01*
X53382Y5297D01*
X53377Y5292D01*
X53329Y5244D01*
X53285Y5186D01*
X53247Y5133D01*
X53213Y5071D01*
X53189Y5013D01*
X53165Y4955D01*
X53132Y4840D01*
X53122Y4787D01*
X53112Y4734D01*
X53108Y4691D01*
X53103Y4653D01*
X53098Y4619D01*
Y4595D01*
Y4580D01*
Y4575D01*
X53103Y4489D01*
X53108Y4407D01*
X53122Y4330D01*
X53141Y4258D01*
X53160Y4191D01*
X53184Y4128D01*
X53209Y4070D01*
X53233Y4018D01*
X53257Y3974D01*
X53281Y3936D01*
X53305Y3902D01*
X53324Y3873D01*
X53343Y3849D01*
X53358Y3835D01*
X53363Y3825D01*
X53367Y3820D01*
X53420Y3772D01*
X53473Y3729D01*
X53536Y3691D01*
X53593Y3662D01*
X53656Y3633D01*
X53718Y3609D01*
X53834Y3575D01*
X53892Y3565D01*
X53940Y3556D01*
X53988Y3551D01*
X54026Y3546D01*
X54060Y3541D01*
X54459D01*
Y5552D01*
D02*
G37*
G36*
X37566Y4768D02*
X37557D01*
X37485Y4763D01*
X37417Y4744D01*
X37360Y4720D01*
X37312Y4696D01*
X37273Y4667D01*
X37244Y4643D01*
X37225Y4624D01*
X37220Y4619D01*
X37177Y4561D01*
X37143Y4499D01*
X37119Y4436D01*
X37100Y4378D01*
X37090Y4325D01*
X37085Y4287D01*
Y4258D01*
Y4253D01*
Y4248D01*
Y4066D01*
X37090Y3965D01*
X37105Y3878D01*
X37129Y3801D01*
X37153Y3734D01*
X37182Y3681D01*
X37201Y3647D01*
X37220Y3623D01*
X37225Y3613D01*
X37278Y3556D01*
X37336Y3512D01*
X37393Y3484D01*
X37451Y3464D01*
X37499Y3450D01*
X37538Y3445D01*
X37566Y3440D01*
X37576D01*
X37658Y3445D01*
X37725Y3464D01*
X37788Y3493D01*
X37841Y3522D01*
X37879Y3551D01*
X37908Y3580D01*
X37927Y3599D01*
X37932Y3604D01*
X37975Y3671D01*
X38009Y3748D01*
X38028Y3825D01*
X38047Y3902D01*
X38057Y3969D01*
X38062Y4027D01*
Y4046D01*
Y4061D01*
Y4070D01*
Y4075D01*
X38057Y4186D01*
X38043Y4287D01*
X38019Y4374D01*
X37995Y4446D01*
X37971Y4503D01*
X37946Y4547D01*
X37932Y4571D01*
X37927Y4580D01*
X37874Y4643D01*
X37812Y4691D01*
X37749Y4725D01*
X37692Y4744D01*
X37639Y4758D01*
X37595Y4763D01*
X37566Y4768D01*
D02*
G37*
G36*
X24204Y4768D02*
X24180D01*
X24089Y4763D01*
X24007Y4739D01*
X23940Y4710D01*
X23882Y4667D01*
X23829Y4619D01*
X23786Y4561D01*
X23752Y4503D01*
X23723Y4446D01*
X23704Y4383D01*
X23690Y4325D01*
X23675Y4268D01*
X23670Y4220D01*
X23665Y4176D01*
X23661Y4147D01*
Y4128D01*
Y4119D01*
X23665Y3998D01*
X23685Y3892D01*
X23709Y3806D01*
X23742Y3729D01*
X23781Y3662D01*
X23824Y3604D01*
X23867Y3561D01*
X23916Y3527D01*
X23964Y3498D01*
X24012Y3474D01*
X24055Y3460D01*
X24094Y3450D01*
X24127Y3445D01*
X24151Y3440D01*
X24175D01*
X24272Y3450D01*
X24353Y3469D01*
X24426Y3503D01*
X24488Y3546D01*
X24541Y3594D01*
X24584Y3652D01*
X24618Y3710D01*
X24647Y3772D01*
X24671Y3835D01*
X24685Y3892D01*
X24700Y3950D01*
X24704Y3998D01*
X24709Y4042D01*
X24714Y4075D01*
Y4095D01*
Y4104D01*
X24709Y4215D01*
X24690Y4316D01*
X24671Y4397D01*
X24642Y4470D01*
X24618Y4523D01*
X24594Y4561D01*
X24579Y4585D01*
X24575Y4595D01*
X24517Y4653D01*
X24454Y4696D01*
X24387Y4725D01*
X24325Y4749D01*
X24267Y4758D01*
X24224Y4763D01*
X24204Y4768D01*
D02*
G37*
G36*
X19798D02*
X19789D01*
X19716Y4763D01*
X19649Y4744D01*
X19591Y4720D01*
X19543Y4696D01*
X19505Y4667D01*
X19476Y4643D01*
X19457Y4624D01*
X19452Y4619D01*
X19409Y4561D01*
X19375Y4499D01*
X19351Y4436D01*
X19332Y4378D01*
X19322Y4325D01*
X19317Y4287D01*
Y4258D01*
Y4253D01*
Y4248D01*
Y4066D01*
X19322Y3965D01*
X19336Y3878D01*
X19361Y3801D01*
X19385Y3734D01*
X19413Y3681D01*
X19433Y3647D01*
X19452Y3623D01*
X19457Y3613D01*
X19510Y3556D01*
X19567Y3512D01*
X19625Y3484D01*
X19683Y3464D01*
X19731Y3450D01*
X19769Y3445D01*
X19798Y3440D01*
X19808D01*
X19890Y3445D01*
X19957Y3464D01*
X20019Y3493D01*
X20073Y3522D01*
X20111Y3551D01*
X20140Y3580D01*
X20159Y3599D01*
X20164Y3604D01*
X20207Y3671D01*
X20241Y3748D01*
X20260Y3825D01*
X20279Y3902D01*
X20289Y3969D01*
X20294Y4027D01*
Y4046D01*
Y4061D01*
Y4070D01*
Y4075D01*
X20289Y4186D01*
X20275Y4287D01*
X20250Y4374D01*
X20226Y4446D01*
X20202Y4503D01*
X20178Y4547D01*
X20164Y4571D01*
X20159Y4580D01*
X20106Y4643D01*
X20044Y4691D01*
X19981Y4725D01*
X19923Y4744D01*
X19870Y4758D01*
X19827Y4763D01*
X19798Y4768D01*
D02*
G37*
G36*
X17066D02*
X17042D01*
X16951Y4763D01*
X16869Y4739D01*
X16802Y4710D01*
X16744Y4667D01*
X16691Y4619D01*
X16648Y4561D01*
X16614Y4503D01*
X16585Y4446D01*
X16566Y4383D01*
X16552Y4325D01*
X16537Y4268D01*
X16532Y4220D01*
X16527Y4176D01*
X16523Y4147D01*
Y4128D01*
Y4119D01*
X16527Y3998D01*
X16547Y3892D01*
X16571Y3806D01*
X16604Y3729D01*
X16643Y3662D01*
X16686Y3604D01*
X16729Y3561D01*
X16778Y3527D01*
X16826Y3498D01*
X16874Y3474D01*
X16917Y3460D01*
X16956Y3450D01*
X16989Y3445D01*
X17013Y3440D01*
X17037D01*
X17133Y3450D01*
X17215Y3469D01*
X17288Y3503D01*
X17350Y3546D01*
X17403Y3594D01*
X17446Y3652D01*
X17480Y3710D01*
X17509Y3772D01*
X17533Y3835D01*
X17547Y3892D01*
X17562Y3950D01*
X17566Y3998D01*
X17571Y4042D01*
X17576Y4075D01*
Y4095D01*
Y4104D01*
X17571Y4215D01*
X17552Y4316D01*
X17533Y4397D01*
X17504Y4470D01*
X17480Y4523D01*
X17456Y4561D01*
X17441Y4585D01*
X17437Y4595D01*
X17379Y4653D01*
X17316Y4696D01*
X17249Y4725D01*
X17186Y4749D01*
X17129Y4758D01*
X17085Y4763D01*
X17066Y4768D01*
D02*
G37*
%LPD*%
D12*
X77151Y118200D02*
X77116Y119198D01*
X77010Y120191D01*
X76835Y121175D01*
X76591Y122143D01*
X76279Y123092D01*
X75900Y124016D01*
X75458Y124912D01*
X74953Y125774D01*
X74389Y126598D01*
X73769Y127381D01*
X73094Y128118D01*
X72369Y128805D01*
X71598Y129439D01*
X70784Y130018D01*
X69931Y130537D01*
X69043Y130996D01*
X68126Y131390D01*
X67182Y131719D01*
X66218Y131980D01*
X65238Y132173D01*
X64247Y132296D01*
X63250Y132349D01*
X62251Y132331D01*
X61256Y132243D01*
X60270Y132085D01*
X59297Y131858D01*
X58343Y131563D01*
X57412Y131201D01*
X56509Y130774D01*
X55638Y130285D01*
X54804Y129736D01*
X54011Y129129D01*
X53262Y128468D01*
X52562Y127755D01*
X51914Y126995D01*
X51321Y126191D01*
X50787Y125347D01*
X50313Y124468D01*
X49902Y123558D01*
X49557Y122620D01*
X49279Y121661D01*
X49069Y120685D01*
X48928Y119696D01*
X48858Y118699D01*
X48858Y117701D01*
X48928Y116704D01*
X49069Y115715D01*
X49279Y114739D01*
X49557Y113780D01*
X49902Y112842D01*
X50313Y111932D01*
X50787Y111053D01*
X51321Y110209D01*
X51914Y109405D01*
X52562Y108645D01*
X53262Y107932D01*
X54011Y107271D01*
X54804Y106664D01*
X55638Y106115D01*
X56509Y105626D01*
X57412Y105199D01*
X58343Y104837D01*
X59297Y104542D01*
X60270Y104315D01*
X61256Y104157D01*
X62251Y104069D01*
X63250Y104051D01*
X64247Y104104D01*
X65238Y104227D01*
X66218Y104420D01*
X67182Y104681D01*
X68126Y105010D01*
X69043Y105404D01*
X69931Y105862D01*
X70784Y106382D01*
X71598Y106961D01*
X72369Y107595D01*
X73094Y108282D01*
X73769Y109019D01*
X74389Y109802D01*
X74953Y110626D01*
X75458Y111488D01*
X75900Y112383D01*
X76279Y113308D01*
X76591Y114257D01*
X76835Y115225D01*
X77010Y116209D01*
X77116Y117202D01*
X77151Y118200D01*
M02*
