G04*
G04 #@! TF.GenerationSoftware,Altium Limited,Altium Designer,20.0.11 (256)*
G04*
G04 Layer_Color=8421504*
%FSLAX25Y25*%
%MOIN*%
G70*
G01*
G75*
%ADD14R,0.03150X0.03150*%
%ADD15R,0.03200X0.03000*%
%ADD16R,0.03000X0.03200*%
%ADD17R,0.05512X0.07874*%
D14*
X75459Y138779D02*
D03*
Y144685D02*
D03*
X100394Y138779D02*
D03*
Y144685D02*
D03*
X50525Y138779D02*
D03*
Y144685D02*
D03*
X25591Y138779D02*
D03*
Y144685D02*
D03*
D15*
X100394Y124903D02*
D03*
Y131003D02*
D03*
X75459Y124903D02*
D03*
Y131003D02*
D03*
X50525Y124903D02*
D03*
Y131003D02*
D03*
X25591Y124903D02*
D03*
Y131003D02*
D03*
D16*
X16635Y66929D02*
D03*
X22735D02*
D03*
X42226D02*
D03*
X48326D02*
D03*
X67816D02*
D03*
X73916D02*
D03*
X93407D02*
D03*
X99507D02*
D03*
D17*
X94488Y29528D02*
D03*
Y57087D02*
D03*
X106299Y29528D02*
D03*
Y57087D02*
D03*
X68898Y29528D02*
D03*
Y57087D02*
D03*
X80709Y29528D02*
D03*
Y57087D02*
D03*
X17717Y29528D02*
D03*
Y57087D02*
D03*
X29528Y29528D02*
D03*
Y57087D02*
D03*
X43307Y29528D02*
D03*
Y57087D02*
D03*
X55118Y29528D02*
D03*
Y57087D02*
D03*
M02*
