G04*
G04 #@! TF.GenerationSoftware,Altium Limited,Altium Designer,20.0.11 (256)*
G04*
G04 Layer_Physical_Order=1*
G04 Layer_Color=255*
%FSLAX25Y25*%
%MOIN*%
G70*
G01*
G75*
%ADD12C,0.01000*%
%ADD14R,0.03150X0.03150*%
%ADD15R,0.03200X0.03000*%
%ADD16R,0.03000X0.03200*%
%ADD17R,0.05512X0.07874*%
%ADD24C,0.01200*%
%ADD25C,0.01600*%
%ADD26C,0.05906*%
%ADD27R,0.05906X0.05906*%
%ADD28C,0.02362*%
D12*
X25591Y131003D02*
X28597D01*
X55800Y103800D02*
X111000D01*
X28597Y131003D02*
X55800Y103800D01*
X103800Y112800D02*
Y127697D01*
X100394Y131003D02*
X100494D01*
X100394D02*
Y138779D01*
X100494Y131003D02*
X103800Y127697D01*
X100200Y109800D02*
X106200D01*
X75459Y131003D02*
X78997D01*
X75459D02*
Y138779D01*
X78997Y131003D02*
X100200Y109800D01*
X78000Y106800D02*
X108600D01*
X50525Y131003D02*
X53797D01*
X50525D02*
Y138779D01*
X53797Y131003D02*
X78000Y106800D01*
X25591Y131003D02*
Y138779D01*
X40472Y75906D02*
X120079D01*
X112784Y73200D02*
X120079Y65905D01*
X63358Y73200D02*
X112784D01*
X105184Y70800D02*
X120079Y55905D01*
X86548Y70800D02*
X105184D01*
X80709Y64961D02*
X86548Y70800D01*
X55118Y64961D02*
X63358Y73200D01*
X29528Y64961D02*
X40472Y75906D01*
X29528Y57087D02*
Y64961D01*
X43307Y29528D02*
Y57087D01*
X106299D02*
X107371Y56015D01*
X120079Y45906D02*
Y45906D01*
X107371Y56015D02*
X109969D01*
X120079Y45906D01*
X106299Y29528D02*
Y55905D01*
Y57087D01*
X55118D02*
Y64961D01*
X80709Y57087D02*
Y64961D01*
X94488Y29528D02*
Y57087D01*
X93407Y58168D02*
Y66929D01*
Y58168D02*
X94488Y57087D01*
X80709Y29528D02*
Y57087D01*
X68898Y29528D02*
Y57087D01*
X67816Y58168D02*
Y66929D01*
Y58168D02*
X68898Y57087D01*
X55118Y29528D02*
Y57087D01*
X42226Y58168D02*
Y66929D01*
Y58168D02*
X43307Y57087D01*
X29528Y29528D02*
Y57087D01*
X17717Y29528D02*
Y57087D01*
X16635Y58168D02*
Y66929D01*
Y58168D02*
X17717Y57087D01*
D14*
X75459Y138779D02*
D03*
Y144685D02*
D03*
X100394Y138779D02*
D03*
Y144685D02*
D03*
X50525Y138779D02*
D03*
Y144685D02*
D03*
X25591Y138779D02*
D03*
Y144685D02*
D03*
D15*
X100394Y124903D02*
D03*
Y131003D02*
D03*
X75459Y124903D02*
D03*
Y131003D02*
D03*
X50525Y124903D02*
D03*
Y131003D02*
D03*
X25591Y124903D02*
D03*
Y131003D02*
D03*
D16*
X16635Y66929D02*
D03*
X22735D02*
D03*
X42226D02*
D03*
X48326D02*
D03*
X67816D02*
D03*
X73916D02*
D03*
X93407D02*
D03*
X99507D02*
D03*
D17*
X94488Y29528D02*
D03*
Y57087D02*
D03*
X106299Y29528D02*
D03*
Y57087D02*
D03*
X68898Y29528D02*
D03*
Y57087D02*
D03*
X80709Y29528D02*
D03*
Y57087D02*
D03*
X17717Y29528D02*
D03*
Y57087D02*
D03*
X29528Y29528D02*
D03*
Y57087D02*
D03*
X43307Y29528D02*
D03*
Y57087D02*
D03*
X55118Y29528D02*
D03*
Y57087D02*
D03*
D24*
X48326Y63000D02*
Y66929D01*
X22735Y63000D02*
Y66929D01*
X73916Y63000D02*
Y66929D01*
X99507Y63000D02*
Y66929D01*
X25591Y120974D02*
Y124903D01*
X50525Y120974D02*
Y124903D01*
X75459Y120974D02*
Y124903D01*
X100394Y120974D02*
Y124903D01*
D25*
X75459Y144685D02*
X100394D01*
X50525D02*
X75459D01*
X25591D02*
X50525D01*
X15600Y134695D02*
X25591Y144685D01*
X15600Y105600D02*
Y134695D01*
X5906Y95906D02*
X15600Y105600D01*
D26*
X5906Y95906D02*
D03*
Y165905D02*
D03*
Y155905D02*
D03*
Y145905D02*
D03*
Y135906D02*
D03*
Y125906D02*
D03*
Y115905D02*
D03*
Y105905D02*
D03*
Y85905D02*
D03*
X120079Y165905D02*
D03*
Y5906D02*
D03*
Y15905D02*
D03*
Y25905D02*
D03*
Y35906D02*
D03*
Y45906D02*
D03*
Y55905D02*
D03*
Y65905D02*
D03*
Y75906D02*
D03*
Y85905D02*
D03*
Y95906D02*
D03*
Y105905D02*
D03*
Y115905D02*
D03*
Y125906D02*
D03*
Y135906D02*
D03*
Y145905D02*
D03*
Y155905D02*
D03*
D27*
X5906Y75906D02*
D03*
D28*
X25591Y120974D02*
D03*
X100394D02*
D03*
X75459D02*
D03*
X50525D02*
D03*
X22735Y63000D02*
D03*
X48326D02*
D03*
X73916D02*
D03*
X99507D02*
D03*
X111000Y103800D02*
D03*
X108600Y106800D02*
D03*
X106200Y109800D02*
D03*
X103800Y112800D02*
D03*
M02*
