G04*
G04 #@! TF.GenerationSoftware,Altium Limited,Altium Designer,20.0.11 (256)*
G04*
G04 Layer_Color=8388736*
%FSLAX25Y25*%
%MOIN*%
G70*
G01*
G75*
%ADD17R,0.04000X0.03800*%
%ADD18R,0.03800X0.04000*%
%ADD19R,0.06312X0.08674*%
%ADD20R,0.03950X0.03950*%
%ADD21C,0.06706*%
%ADD22R,0.06706X0.06706*%
D17*
X100394Y124903D02*
D03*
Y131003D02*
D03*
X75459Y124903D02*
D03*
Y131003D02*
D03*
X50525Y124903D02*
D03*
Y131003D02*
D03*
X25591Y124903D02*
D03*
Y131003D02*
D03*
D18*
X16635Y66929D02*
D03*
X22735D02*
D03*
X42226D02*
D03*
X48326D02*
D03*
X67816D02*
D03*
X73916D02*
D03*
X93407D02*
D03*
X99507D02*
D03*
D19*
X94488Y29528D02*
D03*
Y57087D02*
D03*
X106299Y29528D02*
D03*
Y57087D02*
D03*
X68898Y29528D02*
D03*
Y57087D02*
D03*
X80709Y29528D02*
D03*
Y57087D02*
D03*
X17717Y29528D02*
D03*
Y57087D02*
D03*
X29528Y29528D02*
D03*
Y57087D02*
D03*
X43307Y29528D02*
D03*
Y57087D02*
D03*
X55118Y29528D02*
D03*
Y57087D02*
D03*
D20*
X25591Y144685D02*
D03*
Y138779D02*
D03*
X50525Y144685D02*
D03*
Y138779D02*
D03*
X75459Y144685D02*
D03*
Y138779D02*
D03*
X100394Y144685D02*
D03*
Y138779D02*
D03*
D21*
X5906Y95906D02*
D03*
Y165905D02*
D03*
Y155905D02*
D03*
Y145905D02*
D03*
Y135906D02*
D03*
Y125906D02*
D03*
Y115905D02*
D03*
Y105905D02*
D03*
Y85905D02*
D03*
X120079Y165905D02*
D03*
Y5906D02*
D03*
Y15905D02*
D03*
Y25905D02*
D03*
Y35906D02*
D03*
Y45906D02*
D03*
Y55905D02*
D03*
Y65905D02*
D03*
Y75906D02*
D03*
Y85905D02*
D03*
Y95906D02*
D03*
Y105905D02*
D03*
Y115905D02*
D03*
Y125906D02*
D03*
Y135906D02*
D03*
Y145905D02*
D03*
Y155905D02*
D03*
D22*
X5906Y75906D02*
D03*
M02*
